<?xml version="1.0" encoding="utf-8"?>
<!-- Generator: Adobe Illustrator 25.4.1, SVG Export Plug-In . SVG Version: 6.00 Build 0)  -->
<svg version="1.2" baseProfile="tiny" id="Laag_1" xmlns="http://www.w3.org/2000/svg" xmlns:xlink="http://www.w3.org/1999/xlink"
	 x="0px" y="0px" viewBox="0 0 1024 788" overflow="visible" xml:space="preserve">
<g>
	<path fill="#052C44" d="M982,42C954,14,910,0,850,0H174C114.3-0.3,70.4,13.5,42.2,41.5C14.1,69.5,0,113.7,0,174.1v440.8
		C0,674,14.1,717.6,42.2,745.8C70.4,773.9,114.3,788,174,788h676c60,0,104.1-14.1,132.1-42.2c28-28.2,42-72.1,42-131.8V174.1
		C1024,114,1010,70,982,42z"/>
</g>
<linearGradient id="path8615_00000038406047018060692900000017822921098182597270_" gradientUnits="userSpaceOnUse" x1="152.126" y1="303.4647" x2="685.8651" y2="303.4647">
	<stop  offset="0" style="stop-color:#387EB8"/>
	<stop  offset="1" style="stop-color:#366994"/>
</linearGradient>
<path id="path8615" fill="url(#path8615_00000038406047018060692900000017822921098182597270_)" d="M509.4,36
	c-182.7,0-171.3,79.2-171.3,79.2l0.2,82.1h174.4V222H269c0,0-116.9-13.3-116.9,171.1c0,184.4,102.1,177.8,102.1,177.8h60.9v-85.6
	c0,0-3.3-102.1,100.4-102.1s172.9,0,172.9,0s97.2,1.6,97.2-93.9s0-157.9,0-157.9S700.4,36,509.4,36z M413.3,91.2
	c17.3,0,31.4,14,31.4,31.4s-14,31.4-31.4,31.4c-17.3,0-31.4-14-31.4-31.4S395.9,91.2,413.3,91.2z"/>
<linearGradient id="path8620_00000051365248108548020270000009790479772428207278_" gradientUnits="userSpaceOnUse" x1="338.1349" y1="484.5353" x2="871.874" y2="484.5353">
	<stop  offset="0" style="stop-color:#FFE052"/>
	<stop  offset="1" style="stop-color:#FFC331"/>
</linearGradient>
<path id="path8620" fill="url(#path8620_00000051365248108548020270000009790479772428207278_)" d="M514.6,752
	c182.7,0,171.3-79.2,171.3-79.2l-0.2-82.1H511.3V566H755c0,0,116.9,13.3,116.9-171.1c0-184.4-102.1-177.8-102.1-177.8h-60.9v85.6
	c0,0,3.3,102.1-100.4,102.1s-172.9,0-172.9,0s-97.2-1.6-97.2,93.9s0,157.9,0,157.9S323.6,752,514.6,752z M610.7,696.8
	c-17.3,0-31.4-14-31.4-31.4s14-31.4,31.4-31.4s31.4,14,31.4,31.4C642.1,682.8,628.1,696.8,610.7,696.8z"/>
</svg>
