<?xml version="1.0" encoding="utf-8"?>
<!-- Generator: Adobe Illustrator 25.4.1, SVG Export Plug-In . SVG Version: 6.00 Build 0)  -->
<svg version="1.2" baseProfile="tiny" id="Laag_1" xmlns="http://www.w3.org/2000/svg" xmlns:xlink="http://www.w3.org/1999/xlink"
	 x="0px" y="0px" viewBox="0 0 1024 789.9" overflow="visible" xml:space="preserve">
<g>
	<g>
		<path fill="#052C44" d="M982,43C954,15,910,1,849.9,1H174C114.3,0.7,70.3,14.5,42.2,42.5S0,114.7,0,175v440.8
			c0,59.1,14.1,102.7,42.2,130.9c28.2,28.1,72.1,42.2,131.8,42.2h675.9c60,0,104.1-14.1,132.1-42.2c28-28.2,42-72.1,42-131.8V175.1
			C1024,115,1010,71,982,43z"/>
	</g>
</g>
<path fill-rule="evenodd" fill="#FFFFFF" d="M779.1,143.3c0.2,0.7,0.3,1.4,0.3,2.1v112.9c0,2.9-1.6,5.7-4.1,7.1L680.6,320v108.1
	c0,2.9-1.6,5.7-4.1,7.1L478.7,549.1c-0.5,0.3-0.9,0.4-1.4,0.6c-0.2,0.1-0.4,0.2-0.6,0.2c-1.4,0.4-2.8,0.4-4.2,0
	c-0.2-0.1-0.4-0.2-0.6-0.3c-0.5-0.2-0.9-0.3-1.4-0.6L272.8,435.2c-2.6-1.5-4.1-4.2-4.1-7.1V89.5c0-0.7,0.1-1.5,0.3-2.2
	c0.1-0.2,0.2-0.5,0.3-0.7c0.2-0.4,0.3-0.9,0.5-1.3c0.2-0.3,0.4-0.5,0.6-0.7c0.2-0.3,0.5-0.7,0.7-1c0.2-0.2,0.5-0.4,0.8-0.6
	c0.3-0.2,0.6-0.5,0.9-0.7h0l98.8-56.9c2.5-1.5,5.7-1.5,8.2,0l98.8,56.9h0c0.3,0.2,0.6,0.5,0.9,0.7c0.3,0.2,0.6,0.4,0.8,0.6
	c0.3,0.3,0.5,0.6,0.7,1c0.2,0.2,0.4,0.5,0.6,0.7c0.2,0.4,0.4,0.8,0.5,1.3c0.1,0.2,0.2,0.5,0.3,0.7c0.2,0.7,0.3,1.4,0.3,2.1V301
	l82.4-47.4V145.4c0-0.7,0.1-1.5,0.3-2.1c0.1-0.2,0.2-0.5,0.3-0.7c0.2-0.4,0.3-0.9,0.5-1.3c0.2-0.3,0.4-0.5,0.6-0.7
	c0.2-0.3,0.5-0.7,0.7-1c0.2-0.2,0.5-0.4,0.8-0.6c0.3-0.2,0.6-0.5,0.9-0.7h0l98.9-56.9c2.5-1.5,5.7-1.5,8.2,0l98.8,56.9
	c0.3,0.2,0.6,0.5,0.9,0.7c0.3,0.2,0.6,0.4,0.8,0.6c0.3,0.3,0.5,0.6,0.7,1c0.2,0.2,0.4,0.5,0.6,0.7c0.2,0.4,0.4,0.8,0.5,1.3
	C778.9,142.8,779.1,143.1,779.1,143.3z M762.9,253.6v-93.9l-34.6,19.9l-47.8,27.5V301L762.9,253.6L762.9,253.6z M664.1,423.3v-93.9
	l-47,26.8l-134.2,76.6v94.8C482.9,527.7,664.1,423.3,664.1,423.3z M285.2,103.8v319.6l181.2,104.3v-94.8l-94.7-53.6l0,0l0,0
	c-0.3-0.2-0.6-0.5-0.9-0.7c-0.3-0.2-0.6-0.4-0.8-0.6l0,0c-0.3-0.3-0.5-0.6-0.7-0.9c-0.2-0.3-0.5-0.5-0.6-0.8l0,0
	c-0.2-0.3-0.3-0.7-0.4-1c-0.1-0.3-0.3-0.6-0.4-0.9v0c-0.1-0.4-0.1-0.8-0.2-1.2c0-0.3-0.1-0.6-0.1-0.9v0v-221l-47.8-27.5L285.2,103.8
	L285.2,103.8z M375.8,42.1l-82.4,47.4l82.3,47.4l82.4-47.4L375.8,42.1L375.8,42.1z M418.6,338l47.8-27.5V103.8l-34.6,19.9L384,151.2
	v206.7C384,357.9,418.6,338,418.6,338z M672.3,98L590,145.5l82.4,47.4l82.3-47.4C754.7,145.4,672.3,98,672.3,98z M664.1,207.1
	l-47.8-27.5l-34.6-19.9v93.9l47.8,27.5l34.6,19.9C664.1,301,664.1,207.1,664.1,207.1z M474.6,418.6l120.8-69l60.4-34.5l-82.3-47.4
	l-94.7,54.5l-86.4,49.7C392.4,372.1,474.6,418.6,474.6,418.6z"/>
<path fill-rule="evenodd" fill="#FF2D20" d="M172.6,494.4V650h56.3v26.8h-86.3V494.4C142.6,494.4,172.6,494.4,172.6,494.4z
	 M334.7,571.8v-16.4h28.4v121.5h-28.4v-16.4c-3.8,6.1-9.2,10.9-16.3,14.3c-7,3.5-14.1,5.2-21.2,5.2c-9.2,0-17.6-1.7-25.3-5.1
	c-7.4-3.2-14.1-8-19.7-13.9c-5.5-5.9-9.8-12.8-12.8-20.3c-3.1-7.8-4.6-16.1-4.6-24.5c0-8.5,1.5-16.6,4.6-24.4
	c2.9-7.6,7.3-14.5,12.8-20.5c5.5-5.9,12.2-10.7,19.7-13.9c7.6-3.4,16.1-5.1,25.3-5.1c7.1,0,14.2,1.7,21.2,5.2
	S330.9,565.7,334.7,571.8L334.7,571.8z M332.1,631c1.7-4.8,2.6-9.8,2.6-14.9c0-5.2-0.9-10.2-2.6-14.9c-1.6-4.5-4.1-8.7-7.3-12.3
	c-3.2-3.5-7-6.4-11.3-8.3c-4.4-2.1-9.3-3.1-14.7-3.1c-5.4,0-10.3,1-14.6,3.1c-4.2,2-8.1,4.9-11.2,8.3c-3.2,3.6-5.6,7.7-7.2,12.2
	c-1.7,4.8-2.5,9.8-2.5,14.9c0,5.2,0.8,10.2,2.5,14.9c1.6,4.7,4,8.8,7.2,12.3c3.1,3.5,7,6.3,11.2,8.3c4.3,2.1,9.2,3.1,14.6,3.1
	c5.4,0,10.3-1,14.7-3.1c4.3-2,8.2-4.8,11.3-8.3C328,639.6,330.5,635.5,332.1,631z M385.5,676.8V555.4h77.1v28h-48.7v93.5
	L385.5,676.8L385.5,676.8z M565.6,571.8v-16.4H594v121.5h-28.4v-16.4c-3.8,6.1-9.2,10.9-16.3,14.3c-7,3.5-14.1,5.2-21.2,5.2
	c-9.2,0-17.6-1.7-25.3-5.1c-7.4-3.2-14.1-8-19.7-13.9c-5.5-5.9-9.8-12.8-12.8-20.3c-3.1-7.8-4.6-16.1-4.6-24.5
	c0-8.5,1.5-16.6,4.6-24.4c2.9-7.6,7.3-14.5,12.8-20.5c5.5-5.9,12.2-10.7,19.7-13.9c7.6-3.4,16.1-5.1,25.3-5.1
	c7.1,0,14.2,1.7,21.2,5.2C556.4,560.9,561.8,565.7,565.6,571.8z M563,631c1.7-4.8,2.6-9.8,2.6-14.9c0-5.2-0.9-10.2-2.6-14.9
	c-1.6-4.5-4.1-8.7-7.3-12.3c-3.2-3.5-7-6.4-11.3-8.3c-4.4-2.1-9.3-3.1-14.7-3.1c-5.4,0-10.3,1-14.6,3.1c-4.2,2-8.1,4.9-11.2,8.3
	c-3.2,3.6-5.6,7.7-7.2,12.2c-1.7,4.8-2.5,9.8-2.5,14.9c0,5.2,0.8,10.2,2.5,14.9c1.6,4.7,4,8.8,7.2,12.3c3.1,3.5,7,6.3,11.2,8.3
	c4.3,2.1,9.2,3.1,14.6,3.1c5.4,0,10.3-1,14.7-3.1c4.3-2,8.2-4.8,11.3-8.3C558.9,639.6,561.4,635.5,563,631z M707.9,555.4h28.8
	l-46.6,121.5h-35.7l-46.6-121.5h28.8l35.7,93L707.9,555.4z M798.7,552.3c38.7,0,65.1,34.3,60.1,74.4h-94.2
	c0,10.5,10.6,30.7,35.7,30.7c21.6,0,36.1-19,36.1-19l19.2,14.9c-17.2,18.3-31.2,26.7-53.2,26.7c-39.3,0-66-24.9-66-63.9
	C736.3,580.9,763.9,552.3,798.7,552.3L798.7,552.3z M764.6,605.6h68.1c-0.2-2.3-3.9-30.7-34.2-30.7
	C768.1,574.8,764.8,603.2,764.6,605.6z M877.3,676.8V494.4h28.4v182.4H877.3z"/>
</svg>
