<?xml version="1.0" encoding="utf-8"?>
<!-- Generator: Adobe Illustrator 25.4.1, SVG Export Plug-In . SVG Version: 6.00 Build 0)  -->
<svg version="1.2" baseProfile="tiny" id="Laag_1" xmlns="http://www.w3.org/2000/svg" xmlns:xlink="http://www.w3.org/1999/xlink"
	 x="0px" y="0px" viewBox="0 0 1024 788" overflow="visible" xml:space="preserve">
<g>
	<path fill="#00749A" d="M982,42C954,14,910,0,850,0H174C114.3-0.3,70.4,13.5,42.2,41.5C14.1,69.5,0,113.7,0,174.1v440.8
		C0,674,14.1,717.6,42.2,745.8C70.4,773.9,114.3,788,174,788h676c60,0,104.1-14.1,132.1-42.2c28-28.2,42-72.1,42-131.8V174.1
		C1024,114,1010,70,982,42z"/>
</g>
<g>
	<path fill="#FFFFFF" d="M29.8,317.7v-22.7l96-68.7v29.3l-71.3,50.2v1.1l71.3,50.2v29.3L29.8,317.7z"/>
	<path fill="#FFFFFF" d="M169.3,361c0-30.1,24.5-45.1,85.7-49.8c-1-15-9.3-26.3-29.5-26.3c-14,0-27.8,6.6-40.5,14.3l-10.8-20.9
		c15-9.8,35.4-18.7,56.8-18.7c34.4,0,53.3,20.7,53.3,58.1v79.5h-24l-2.2-16.6h-0.9c-13,10.9-29.7,19.9-46.3,19.9
		C186.7,400.4,169.3,384.3,169.3,361z M255.1,359.2V331c-44.6,3.2-57.4,13.1-57.4,27.6c0,11.8,9.7,16.9,22,16.9
		C232.1,375.5,243.6,369.2,255.1,359.2z"/>
	<path fill="#FFFFFF" d="M475.4,204h29.2v49.8l-1.7,28.7h0.9c10.8-12.6,24.7-23.1,43.6-23.1c28.6,0,41.5,19.8,41.5,54.4v83.2h-29.2
		V318c0-21.5-6.4-31.4-23.1-31.4c-12.2,0-20.5,6.4-31.9,18.9v91.6h-29.2V204z"/>
	<path fill="#FFFFFF" d="M639,262.8h24.1l2.5,30.5h0.7c12.6-21.9,31.4-33.8,52.8-33.8c10,0,16.8,1.7,24.2,5.5l-6.2,26.7
		c-8.2-2.8-13-4.2-22.5-4.2c-17,0-33.6,9.4-46.3,35.5v74H639V262.8z"/>
	<path fill="#FFFFFF" d="M773.2,329.8c0-43.8,30.7-70.3,63.9-70.3c37,0,57.6,26.6,57.6,63.8c0,6.3-0.8,12.4-1.3,15.9H794v-22.3h80.5
		l-5.6,7c0-26.5-11.5-40-30.9-40c-20.5,0-36.3,16-36.3,46c0,31.2,17.4,46.1,43.2,46.1c13,0,23.7-4.1,34.8-11l10,19.6
		c-13.2,9.4-30.4,15.9-48.6,15.9C803.1,400.4,773.2,374.5,773.2,329.8z"/>
	<path fill="#FFFFFF" d="M932.6,264.2l35-1.5h75.3v25H932.6V264.2z M966.6,255.5c0-31.7,16.2-54.8,52.8-54.8c13.2,0,25.6,3,36.7,7.5
		l-6,23.4c-9-3.9-17.3-5.8-27.3-5.8c-18.9,0-27.1,10.4-27.1,29.2v142.1h-29.1V255.5z"/>
	<path fill="#FFFFFF" d="M1086.6,357.1l71.3-50.2v-1.1l-71.3-50.2v-29.3l96,68.7v22.7l-96,68.7V357.1z"/>
</g>
</svg>
