<?xml version="1.0" encoding="utf-8"?>
<!-- Generator: Adobe Illustrator 25.2.0, SVG Export Plug-In . SVG Version: 6.00 Build 0)  -->
<svg version="1.2" baseProfile="tiny" id="Laag_1" xmlns="http://www.w3.org/2000/svg" xmlns:xlink="http://www.w3.org/1999/xlink"
	 x="0px" y="0px" viewBox="0 0 247 191" overflow="visible" xml:space="preserve">
<path fill="#00B9D4" d="M41.9,190.6c-14.4,0-25-3.4-31.8-10.2s-10.2-17.3-10.2-31.6V42.4c0-14.6,3.4-25.2,10.2-32s17.4-10.1,31.8-10
	h163.1c14.5,0,25.1,3.4,31.9,10.1c6.8,6.8,10.1,17.4,10.1,31.9v106.2c0,14.4-3.4,25-10.1,31.8c-6.8,6.8-17.4,10.2-31.9,10.2H41.9z"
	/>
<g>
	<path fill-rule="evenodd" fill="#00678C" d="M214.2,142.7c-9.9,1.9-17.2,4.4-23.1,8.6c-1.7,1.1-4.5,1.8-4.4,4.2
		c1.2,0.8,1.8,2.3,2.8,3.5c2.1,2.1,5.4,4.9,8.1,6.1c2.9,1.4,5.9,2.8,9,4c5.6,1.9,11.3,2.3,16.5,4.3c3.2,1.1,6.4,2.7,9.5,4.1
		c1.4,0.7,2.7,2,4.5,2.2l-0.1-0.2c-1.1-0.9-1.7-2.5-2.7-3.5l-4.5-2.9c-4.6-3.9-10-7.1-15.6-9.5c-4.4-1.9-13.8-3.8-16.4-7.9
		c-0.2-0.1-0.3-0.1-0.3-0.2c2.6-1,5.6-2.6,7.9-3.8c3.9-2,7.8-2.6,11.9-4.6c1.8-1,3.7-2,5.5-3l-0.2-1.1c-2.7-1.7-4.8-4.5-7.7-5.9
		c-7.4-4.1-15.5-7.8-23.5-10.8c-4.5-1.7-9.6-2.3-14.3-3.5c-1.5-0.3-4-0.2-5.3-1.2c-2.8-2.2-4.7-5.6-7.1-8.4
		c-5.1-6.2-10-12.6-14.7-19.2c-3.1-4.3-5.7-8.8-9.2-12.7c-17.3-18.1-33.7-27.8-57.7-35.7c-5.1-1.6-10.8-1.5-16.8-1.6
		c-3.1,0.4-6.2,1-9.4,1.4c-2-0.3-4.5-2.2-6.6-3c-8-2.9-28.2-8.7-30.6,5.2c-1.6,8.7,8.4,14.8,12.2,18.2c2.7,2.4,6,5,8.2,7.9
		c1.4,1.9,2,3.9,3.4,6c3.3,5.1,6.3,10.7,10,15.2c1.9,2.3,4,4.7,6.2,6.6c1.3,1.1,3.3,1.4,4,3.5c-1.2,2.8-0.5,6.6-0.8,9.8
		c-1.3,14.8,4,31.6,12.7,40.5c2.6,2.6,8.7,8.4,14.5,4.5c5-3.5,2.3-10.2,2.5-16.8c0.1-1.4-0.4-2.4,0.1-3.5l0.1,0.2
		c2.3,3.1,4.8,6,7.2,9c5,5.2,13,10.2,19.6,13.1c3.3,1.6,6.5,4.9,10.6,5.3l-0.1-0.2l-0.4,0.1c-1-0.9-2.2-1.2-3.2-1.9
		c-2.7-1.7-5.7-3.9-8.1-6c-6.5-5.8-12.7-12.4-18.6-19.4c-2.8-3.4-5.4-7.2-7.8-10.7c-0.9-1.3-1.4-3.6-3-4.1c-1.2,3.2-3.3,6.1-4.1,9.8
		c-1.1,5.8,0,12.4,0.7,19.2c-0.4,0.4-0.3,0.2-0.5,0.5c-4.1-0.1-6.4-3.9-8.6-7c-5.5-8-9.2-21.8-8.2-32.6c0.3-2.8,2.4-11.7,0.2-13.8
		c-1.3-2.2-3.9-3.1-5.7-4.7c-2.2-1.8-4.4-4.4-6.2-6.8c-4.4-6.2-7.5-13.6-12.2-19.8c-2.3-3-5.5-5.8-8.2-8.1c-3.1-2.8-6.1-4.6-8.8-8.1
		c-0.9-1.2-2.2-3.2-1.7-4.9c0.2-1.1,0.4-1.5,1.3-2.1c1.3-1.6,6.3-0.8,8.1-0.6c4.9,1,9,1.9,13.4,3.7c2.1,0.8,4.5,2.8,6.8,2.9l2.5-0.5
		c4.1,0,8.4-1.6,12.3-1.3c6.9,0.6,13.5,2.3,19.6,4.6c18.5,6.7,34.8,18.3,47.6,33.7c2.1,2.5,3.3,5,5.1,7.6
		c3.9,5.5,8.5,10.9,12.4,16.1c3.7,5.4,7.6,10.7,12.2,14.7c2.5,2.2,10.2,1.9,13.8,2.5c2.6,0.5,6.6,0.8,9.1,1.6
		c4.8,1.5,9.6,3.7,14.2,5.7C206.5,138.5,213.4,140.2,214.2,142.7L214.2,142.7z"/>
	<path fill-rule="evenodd" fill="#00678C" d="M65.5,63.1c-1.7,0.4-3.3,0.9-4.9,1.7l0.1,0.2l0.4-0.1c1.4,1.8,3.4,2.7,5,4.2
		c1.3,1.8,2.7,3.5,4,5.3l0.3-0.4c1.5-1.5,1.8-3.6,1.1-6.7c-0.8-0.6-1.1-1.4-1.9-2.2C68.4,64.1,66.8,63.8,65.5,63.1L65.5,63.1z"/>
</g>
</svg>
