<?xml version="1.0" encoding="utf-8"?>
<!-- Generator: Adobe Illustrator 25.2.0, SVG Export Plug-In . SVG Version: 6.00 Build 0)  -->
<svg version="1.2" baseProfile="tiny" id="Laag_1" xmlns="http://www.w3.org/2000/svg" xmlns:xlink="http://www.w3.org/1999/xlink"
	 x="0px" y="0px" viewBox="0 0 247 191" overflow="visible" xml:space="preserve">
<path fill="#F1CA6B" d="M41.8,190.6c-14.4,0-25-3.4-31.8-10.2s-10.2-17.3-10.2-31.6V42.4c0-14.6,3.4-25.2,10.2-32s17.4-10.1,31.8-10
	h163.1c14.5,0,25.1,3.4,31.9,10.1c6.8,6.8,10.1,17.4,10.1,31.9v106.2c0,14.4-3.4,25-10.1,31.8c-6.8,6.8-17.4,10.2-31.9,10.2H41.8z"
	/>
<g>
	<path fill-rule="evenodd" fill="#00678C" d="M23.3,130.6h7V103l10.8,24c1.3,2.9,3,3.9,6.4,3.9c3.4,0,5.1-1,6.4-3.9l10.8-24v27.6
		h6.9v-27.5c0-2.7-1.1-4-3.3-4.7c-5.3-1.7-8.9-0.2-10.5,3.4l-10.6,23.7l-10.3-23.7c-1.5-3.6-5.2-5-10.5-3.4c-2.2,0.7-3.3,2-3.3,4.7
		L23.3,130.6L23.3,130.6L23.3,130.6z M77.5,108.2h6.9v15.2c-0.1,0.9,0.3,2.8,4.1,2.8c1.9,0.1,15,0,15.1,0v-18.1h7
		c0.1,0,0,24.6,0,24.7c0.1,6.1-7.5,7.4-11,7.5h-22v-4.7c0,0,22,0.1,22,0c4.5-0.4,4-2.7,4-3.4v-1.8H88.8c-6.9-0.1-11.3-3.1-11.3-6.6
		C77.5,123.5,77.6,108.3,77.5,108.2L77.5,108.2z M227.6,90.7c-4.3-0.1-7.5,0.3-10.4,1.5c-0.8,0.3-2,0.3-2.2,1.3
		c0.4,0.4,0.5,1.1,0.9,1.7c0.7,1.1,1.8,2.5,2.8,3.3c1.1,0.9,2.2,1.7,3.4,2.5c2.1,1.3,4.5,2,6.5,3.3c1.2,0.7,2.4,1.7,3.6,2.6
		c0.5,0.4,1,1.1,1.7,1.3V108c-0.4-0.5-0.5-1.2-0.8-1.7l-1.6-1.6c-1.5-2-3.5-3.8-5.6-5.3c-1.7-1.2-5.4-2.8-6.1-4.8
		c-0.1-0.1-0.1-0.1-0.1-0.1c1.2-0.2,2.6-0.6,3.6-0.9c1.8-0.5,3.5-0.4,5.3-0.9c0.9-0.3,1.7-0.5,2.6-0.7v-0.5c-1-1-1.6-2.3-2.7-3.2
		c-2.7-2.4-5.7-4.6-8.8-6.6c-1.7-1.1-3.8-1.8-5.6-2.7c-0.6-0.3-1.7-0.4-2.1-1c-1-1.2-1.4-2.7-2.2-4.1c-1.6-3-3-6.1-4.4-9.3
		c-0.9-2.1-1.6-4.2-2.7-6.1c-5.6-9.1-11.5-14.6-20.7-20c-2-1.1-4.3-1.6-6.8-2.2c-1.3-0.1-2.7-0.2-4-0.3c-0.8-0.3-1.7-1.3-2.5-1.8
		c-3-1.9-10.9-6.1-13.1-0.6c-1.4,3.5,2.1,6.9,3.4,8.7c0.9,1.2,2,2.6,2.7,4c0.4,0.9,0.5,1.8,0.9,2.8c0.9,2.4,1.7,5,2.8,7.2
		c0.6,1.1,1.2,2.3,2,3.3c0.4,0.6,1.2,0.9,1.3,1.8c-0.7,1.1-0.8,2.7-1.2,4c-1.9,6-1.2,13.5,1.6,18c0.9,1.3,2.8,4.3,5.6,3.2
		c2.4-1,1.9-4,2.6-6.7c0.2-0.6,0.1-1,0.4-1.4v0.1c0.7,1.5,1.4,2.9,2.2,4.4c1.6,2.6,4.5,5.4,6.9,7.2c1.2,1,2.2,2.6,3.9,3.2v-0.1h-0.2
		c-0.3-0.5-0.8-0.7-1.2-1.1c-1-1-2-2.1-2.8-3.2c-2.2-3-4.2-6.3-6-9.7c-0.9-1.7-1.6-3.5-2.3-5.1c-0.3-0.6-0.3-1.6-0.9-2
		c-0.8,1.2-1.9,2.2-2.6,3.7c-1,2.3-1.1,5.1-1.4,8c-0.2,0.1-0.2,0.1-0.3,0.2c-1.7-0.4-2.3-2.2-2.9-3.7c-1.5-3.8-1.9-9.9-0.5-14.3
		c0.4-1.1,2-4.6,1.3-5.7c-0.3-1-1.3-1.7-1.9-2.5c-0.7-1-1.4-2.2-2-3.4c-1.3-3-1.9-6.3-3.3-9.3c-0.7-1.4-1.8-2.9-2.7-4.1
		c-1-1.4-2.1-2.5-2.9-4.2c-0.3-0.6-0.6-1.5-0.3-2.2c0.2-0.4,0.3-0.6,0.7-0.7c0.7-0.5,2.7,0.2,3.4,0.5c1.9,0.9,3.6,1.6,5.2,2.7
		c0.8,0.5,1.6,1.5,2.6,1.8h1.1c1.7,0.4,3.6,0.1,5.2,0.6c2.8,0.9,5.4,2.2,7.7,3.7c7.1,4.4,12.8,10.7,16.7,18.3
		c0.6,1.2,0.9,2.4,1.4,3.6c1.1,2.6,2.6,5.3,3.7,7.8c1.1,2.6,2.2,5.1,3.7,7.2c0.9,1.1,4.1,1.7,5.5,2.3c1,0.4,2.7,0.9,3.6,1.5
		c1.9,1.1,3.6,2.4,5.4,3.6C224.8,88.2,227.5,89.6,227.6,90.7L227.6,90.7z"/>
	<path fill-rule="evenodd" fill="#00678C" d="M173.1,44.2c-0.7,0-1.5,0.1-2.2,0.3v0.1h0.2c0.4,0.9,1.2,1.4,1.7,2.2
		c0.4,0.9,0.8,1.7,1.2,2.6l0.2-0.2c0.7-0.5,1.1-1.3,1.1-2.7c-0.3-0.3-0.3-0.7-0.6-1.1C174.2,44.9,173.5,44.7,173.1,44.2L173.1,44.2z
		"/>
	<path fill-rule="evenodd" fill="#CE8B2C" d="M116,130.6h20c2.4,0,4.6-0.5,6.5-1.3c3-1.4,4.5-3.3,4.5-5.7v-5.1c0-2-1.7-3.9-5-5.1
		c-1.8-0.7-3.9-1-6-1h-8.4c-2.8,0-4.2-0.9-4.5-2.7c-0.1-0.2-0.1-0.4-0.1-0.6v-3.2c0-0.2,0-0.4,0.1-0.6c0.3-1.4,1.1-1.9,3.5-2.1
		c0.2,0,0.5-0.1,0.7-0.1h19.9v-4.6h-19.6c-2.8,0-4.3,0.2-5.6,0.6c-4.2,1.3-6,3.4-6,6.9v4.1c0,3.2,3.6,5.8,9.5,6.5
		c0.7,0,1.3,0.1,2,0.1h7.2c0.3,0,0.5,0,0.7,0.1c2.2,0.2,3.2,0.6,3.8,1.4c0.4,0.4,0.5,0.8,0.5,1.3v4.1c0,0.5-0.3,1.1-1,1.7
		c-0.6,0.5-1.6,0.9-2.9,1c-0.3,0-0.5,0.1-0.7,0.1H116V130.6z M190.5,122.5c0,4.8,3.5,7.5,10.7,8c0.6,0.1,1.3,0.1,2,0.1h18.2v-4.7
		h-18.3c-4.1,0-5.7-1-5.7-3.5V98.4h-6.9L190.5,122.5L190.5,122.5L190.5,122.5z M151.5,122.7v-16.6c0-4.2,2.9-6.8,8.8-7.6
		c0.6-0.1,1.3-0.1,1.9-0.1h13.3c0.6,0,1.2,0,1.9,0.1c5.8,0.8,8.8,3.4,8.8,7.6v16.6c0,3.4-1.3,5.2-4.2,6.4l6.9,6.2h-8.1l-5.6-5
		l-5.6,0.3h-7.4c-1.3,0-2.6-0.2-4.1-0.6C153.6,128.9,151.5,126.6,151.5,122.7L151.5,122.7z M159,122.3c0,0.3,0.1,0.5,0.1,0.7
		c0.4,1.9,2.2,3,5,3h6.4l-5.8-5.2h8.1l5.1,4.5c0.9-0.5,1.6-1.2,1.8-2.2c0.1-0.3,0.1-0.5,0.1-0.7v-15.9c0-0.2,0-0.4-0.1-0.6
		c-0.4-1.8-2.2-2.8-4.9-2.8h-10.6c-3.1,0-5.1,1.3-5.1,3.4L159,122.3L159,122.3L159,122.3z M224.6,130.6h1v-3.8h1.4v-0.8h-3.8v0.8
		h1.4L224.6,130.6L224.6,130.6z M232.4,130.6h0.9v-4.7H232l-1.2,3.2l-1.2-3.2h-1.4v4.7h1v-3.5l1.3,3.5h0.7l1.3-3.5h0.1L232.4,130.6
		L232.4,130.6z"/>
</g>
</svg>
