<?xml version="1.0" encoding="utf-8"?>
<!-- Generator: Adobe Illustrator 25.2.0, SVG Export Plug-In . SVG Version: 6.00 Build 0)  -->
<svg version="1.2" baseProfile="tiny" id="Laag_1" xmlns="http://www.w3.org/2000/svg" xmlns:xlink="http://www.w3.org/1999/xlink"
	 x="0px" y="0px" viewBox="0 0 247 191" overflow="visible" xml:space="preserve">
<path fill="#00B9D4" d="M42,190.8c-14.4,0-25-3.4-31.8-10.2C3.4,173.8,0,163.3,0,149.1V42.7c0-14.6,3.4-25.2,10.2-32
	C17,3.9,27.6,0.6,42,0.6h163.1c14.5,0,25.1,3.4,31.9,10.1c6.8,6.8,10.1,17.4,10.1,31.9v106.2c0,14.4-3.4,25-10.1,31.8
	c-6.8,6.8-17.4,10.2-31.9,10.2H42z"/>
<path fill="#264DE4" d="M123.6,185.9l-59.6-16.5L50.8,20.5h145.9l-13.3,148.9L123.6,185.9L123.6,185.9z"/>
<path fill="#2965F1" d="M172,159.9l11.4-127.2h-59.6v140.6L172,159.9L172,159.9z"/>
<path fill="#EBEBEB" d="M81.2,87.9l1.6,18.3h40.9V87.9H81.2L81.2,87.9z"/>
<path fill="#EBEBEB" d="M77.9,50.9l1.7,18.3h44.1V50.9H77.9L77.9,50.9z"/>
<path fill="#EBEBEB" d="M123.7,135.3L123.7,135.3l-20.4-5.5l-1.3-14.6H83.7l2.6,28.7l37.4,10.4l0.1,0V135.3L123.7,135.3z"/>
<path fill="#FFFFFF" d="M166.1,87.9l3.3-37h-45.7v18.3h25.7l-1.7,18.7h-24.1v18.3h22.5l-2.1,23.7l-20.4,5.5v19l37.4-10.4l0.3-3.1
	l4.3-48.1L166.1,87.9L166.1,87.9z"/>
</svg>
