<?xml version="1.0" encoding="utf-8"?>
<!-- Generator: Adobe Illustrator 25.2.0, SVG Export Plug-In . SVG Version: 6.00 Build 0)  -->
<svg version="1.2" baseProfile="tiny" id="Laag_1" xmlns="http://www.w3.org/2000/svg" xmlns:xlink="http://www.w3.org/1999/xlink"
	 x="0px" y="0px" viewBox="0 0 1024 788" overflow="visible" xml:space="preserve">
<g>
	<path fill="#00749A" d="M982,42C954,14,910,0,850,0H174C114.3-0.3,70.4,13.5,42.2,41.5C14.1,69.5,0,113.7,0,174.1v440.8
		C0,674,14.1,717.6,42.2,745.8C70.4,773.9,114.3,788,174,788H850c60,0,104.1-14.1,132.1-42.2c28-28.2,42-72.1,42-131.8V174.1
		C1024,114,1010,70,982,42z"/>
</g>
<g>
	<path fill="#FFFFFF" d="M512,14.5c-154.1,0-279.5,125.4-279.5,279.5c0,154.1,125.4,279.5,279.5,279.5
		c154.1,0,279.5-125.4,279.5-279.5C791.5,139.8,666.1,14.5,512,14.5z"/>
	<path fill="#00749A" d="M272.2,294c0,94.9,55.2,176.9,135.1,215.8L293,196.4C279.2,227.1,272.2,260.4,272.2,294L272.2,294z
		 M516.2,315L444.3,524c22,6.5,44.8,9.8,67.7,9.8c27.9,0,54.7-4.8,79.6-13.6c-0.7-1-1.2-2.2-1.7-3.3L516.2,315z M722.4,178.9
		c1,7.6,1.6,15.8,1.6,24.7c0,24.3-4.5,51.7-18.2,85.9l-73.2,211.8c71.3-41.6,119.2-118.8,119.2-207.3
		C751.8,253.8,741.7,214.2,722.4,178.9L722.4,178.9z M673.9,281.9c0-29.6-10.6-50.2-19.8-66.1c-12.2-19.8-23.5-36.5-23.5-56.2
		c0-22,16.7-42.6,40.3-42.6c1.1,0,2.1,0.1,3.1,0.2c-42.7-39.1-99.5-63-161.9-63c-83.8,0-157.5,43-200.4,108.1
		c5.6,0.2,10.9,0.3,15.4,0.3c25.1,0,63.9-3,63.9-3c12.9-0.8,14.5,18.2,1.5,19.8c0,0-13,1.5-27.5,2.3l87.3,259.7l52.5-157.4
		l-37.4-102.4c-12.9-0.8-25.1-2.3-25.1-2.3c-12.9-0.8-11.4-20.5,1.5-19.8c0,0,39.6,3,63.2,3c25.1,0,63.9-3,63.9-3
		c12.9-0.8,14.5,18.2,1.5,19.8c0,0-13,1.5-27.4,2.3l86.7,257.8l23.9-79.9C666,326.2,673.9,302.4,673.9,281.9L673.9,281.9z
		 M512,560.7c-147.1,0-266.7-119.7-266.7-266.7c0-147.1,119.6-266.7,266.7-266.7c147.1,0,266.7,119.6,266.7,266.7
		C778.7,441.1,659,560.7,512,560.7L512,560.7z"/>
</g>
<g>
	<path fill="#FFFFFF" d="M466.9,630.7h-46.2v4.9c14.4,0,16.8,3.1,16.8,21.4v33c0,18.3-2.3,21.7-16.8,21.7
		c-11.1-1.5-18.6-7.5-28.9-18.8L379.9,680c16-2.8,24.5-12.9,24.5-24.3c0-14.2-12.1-25-34.8-25h-45.4v4.9c14.4,0,16.8,3.1,16.8,21.4
		v33c0,18.3-2.3,21.7-16.8,21.7v4.9h51.4v-4.9c-14.4,0-16.8-3.4-16.8-21.7v-9.3h4.4l28.6,35.9h75.1c36.9,0,52.9-19.6,52.9-43.1
		C519.8,650,503.8,630.7,466.9,630.7L466.9,630.7z M358.8,672.8v-34.3h10.6c11.6,0,16.8,8,16.8,17.3c0,9-5.2,17-16.8,17L358.8,672.8
		z M467.7,708.6h-1.8c-9.3,0-10.6-2.3-10.6-14.2v-56h12.4c26.8,0,31.7,19.6,31.7,34.8C499.4,689,494.5,708.6,467.7,708.6z"/>
	<path fill="#FFFFFF" d="M180.4,682.3l17.8-52.7c5.2-15.2,2.8-19.6-13.7-19.6v-5.2h48.5v5.2c-16.3,0-20.1,3.9-26.6,22.7L177.1,721
		h-3.4l-26.3-80.8L120.6,721h-3.4l-28.6-88.3C82.4,613.9,78.2,610,63.3,610v-5.2h57.3v5.2c-15.2,0-19.4,3.6-13.9,19.6l17.3,52.7
		l26.1-77.4h4.9L180.4,682.3L180.4,682.3z"/>
	<path fill="#FFFFFF" d="M268.2,720c-28.4,0-51.6-20.9-51.6-46.5c0-25.3,23.2-46.2,51.6-46.2s51.6,20.9,51.6,46.2
		C319.8,699.1,296.6,720,268.2,720z M268.2,635.3c-23.7,0-32,21.4-32,38.2c0,17,8.3,38.2,32,38.2c24,0,32.3-21.2,32.3-38.2
		C300.4,656.7,292.2,635.3,268.2,635.3L268.2,635.3z"/>
	<path fill="#FFFFFF" d="M583.5,711.5v5.2h-59.1v-5.2c17.3,0,20.4-4.4,20.4-30.2V640c0-25.8-3.1-29.9-20.4-29.9v-5.2h53.4
		c26.6,0,41.3,13.7,41.3,32c0,17.8-14.7,31.7-41.3,31.7h-14.7v12.6C563.2,707.1,566.3,711.5,583.5,711.5L583.5,711.5z M577.9,614.2
		h-14.7v44.9h14.7c14.5,0,21.2-10.1,21.2-22.2C599,624.5,592.3,614.2,577.9,614.2z M796.5,692.4l-1.3,4.6
		c-2.3,8.5-5.2,11.6-23.5,11.6h-3.6c-13.4,0-15.7-3.1-15.7-21.4v-11.9c20.1,0,21.7,1.8,21.7,15.2h4.9v-38.5H774
		c0,13.4-1.5,15.2-21.7,15.2v-28.9h14.2c18.3,0,21.2,3.1,23.5,11.6l1.3,4.9h4.1l-1.8-24.3h-75.9v4.9c14.4,0,16.8,3.1,16.8,21.4v33
		c0,16.8-2,21-13.4,21.6c-10.8-1.7-18.3-7.6-28.4-18.8L680.8,680c16-2.8,24.5-12.9,24.5-24.3c0-14.2-12.1-25-34.8-25h-45.4v4.9
		c14.4,0,16.8,3.1,16.8,21.4v33c0,18.3-2.3,21.7-16.8,21.7v4.9h51.4v-4.9c-14.4,0-16.8-3.4-16.8-21.7v-9.3h4.4l28.6,35.9h106.1
		l1.5-24.3L796.5,692.4L796.5,692.4z M659.7,672.8v-34.3h10.6c11.6,0,16.8,8,16.8,17.3c0,9-5.2,17-16.8,17L659.7,672.8z"/>
	<path fill="#FFFFFF" d="M848.8,720c-10.3,0-19.4-5.4-23.2-8.8c-1.3,1.3-3.6,5.2-4.1,8.8h-4.9v-35.6h5.2c2.1,17,13.9,27.1,29.2,27.1
		c8.3,0,15-4.6,15-12.4c0-6.7-5.9-11.9-16.5-16.8l-14.7-7c-10.3-4.9-18.1-13.4-18.1-24.8c0-12.4,11.6-23,27.6-23
		c8.5,0,15.7,3.1,20.1,6.7c1.3-1,2.6-3.9,3.4-7h4.9v30.5h-5.4c-1.8-12.1-8.5-22.2-22.2-22.2c-7.2,0-13.9,4.1-13.9,10.6
		c0,6.7,5.4,10.3,17.8,16l14.2,7c12.4,5.9,17.3,15.5,17.3,23.2C880.3,708.6,866.1,720,848.8,720L848.8,720z"/>
	<path fill="#FFFFFF" d="M928.3,720c-10.3,0-19.4-5.4-23.2-8.8c-1.3,1.3-3.6,5.2-4.1,8.8h-4.9v-35.6h5.2c2.1,17,13.9,27.1,29.2,27.1
		c8.3,0,15-4.6,15-12.4c0-6.7-5.9-11.9-16.5-16.8l-14.7-7c-10.3-4.9-18.1-13.4-18.1-24.8c0-12.4,11.6-23,27.6-23
		c8.5,0,15.7,3.1,20.1,6.7c1.3-1,2.6-3.9,3.4-7h4.9v30.5h-5.4c-1.8-12.1-8.5-22.2-22.2-22.2c-7.2,0-13.9,4.1-13.9,10.6
		c0,6.7,5.4,10.3,17.8,16l14.2,7c12.4,5.9,17.3,15.5,17.3,23.2C959.8,708.6,945.6,720,928.3,720L928.3,720z"/>
</g>
</svg>
