<?xml version="1.0" encoding="utf-8"?>
<!-- Generator: Adobe Illustrator 25.2.0, SVG Export Plug-In . SVG Version: 6.00 Build 0)  -->
<svg version="1.1" id="Laag_1" xmlns="http://www.w3.org/2000/svg" xmlns:xlink="http://www.w3.org/1999/xlink" x="0px" y="0px"
	 viewBox="0 0 1024 789.9" style="enable-background:new 0 0 1024 789.9;" xml:space="preserve">
<style type="text/css">
	.st0{fill:#005E7A;}
	.st1{fill:#FFFFFF;}
</style>
<g>
	<g>
		<path class="st0" d="M982.2,44c-28-28-72-42-132.1-42H174.2C114.5,1.7,70.5,15.5,42.4,43.5S0.2,115.7,0.2,176v440.8
			c0,59.1,14.1,102.7,42.2,130.9c28.2,28.1,72.1,42.2,131.8,42.2h675.9c60,0,104.1-14.1,132.1-42.2c28-28.2,42-72.1,42-131.8V176.1
			C1024.2,116,1010.2,72,982.2,44z"/>
	</g>
</g>
<path id="path3486" class="st1" d="M223.9,437.1c27,0,47.1-5.1,59.9-15c12.6-9.9,21.3-26.9,25.9-50.8c4.3-22.3,2.6-37.8-4.8-46.2
	c-7.6-8.6-24.1-12.9-49-12.9h-43.1l-23.9,124.9H223.9z M82.9,591c-2,0-3.9-0.9-5.2-2.5c-1.3-1.6-1.8-3.6-1.4-5.6l63.3-331.1
	c0.6-3.2,3.4-5.5,6.6-5.5h136.5c42.9,0,74.8,11.8,94.9,35.2c20.2,23.5,26.4,56.3,18.5,97.5c-3.2,16.8-8.7,32.4-16.4,46.4
	c-7.7,14-17.9,26.9-30.2,38.5c-14.8,14.1-31.5,24.3-49.7,30.3C282,500,259,503,231.6,503h-55.3l-15.8,82.5c-0.6,3.2-3.4,5.5-6.6,5.5
	H82.9L82.9,591z"/>
<path id="path3494" class="st1" d="M564.6,503c-2,0-3.9-0.9-5.1-2.5c-1.3-1.6-1.8-3.6-1.4-5.6l27.7-146.5c2.6-13.9,2-23.9-1.8-28.2
	c-2.3-2.6-9.3-6.9-30-6.9h-50.1L469,497.5c-0.6,3.2-3.3,5.5-6.5,5.5H393c-2,0-3.9-0.9-5.1-2.5c-1.3-1.6-1.8-3.6-1.4-5.6L449,163.8
	c0.6-3.2,3.3-5.5,6.5-5.5H525c2,0,3.9,0.9,5.1,2.5c1.3,1.6,1.8,3.6,1.4,5.6l-15.1,79.9h53.9c41.1,0,68.9,7.5,85.1,22.8
	c16.5,15.6,21.7,40.6,15.3,74.3l-29.1,154.1c-0.6,3.2-3.3,5.5-6.5,5.5H564.6L564.6,503z"/>
<path id="path3502" class="st1" d="M798.8,437.1c28,0,48.9-5.1,62.2-15c13.1-9.9,22.1-26.9,26.9-50.8c4.4-22.3,2.7-37.8-5-46.2
	c-7.9-8.6-25-12.9-50.8-12.9h-44.8l-24.8,124.9H798.8z M652.4,591c-2.1,0-4.1-0.9-5.4-2.5c-1.3-1.6-1.9-3.6-1.5-5.6l65.8-331.1
	c0.6-3.2,3.5-5.5,6.8-5.5H860c44.6,0,77.7,11.8,98.6,35.2c21,23.5,27.4,56.3,19.2,97.5c-3.3,16.8-9.1,32.4-17,46.4
	c-8,14-18.5,26.9-31.4,38.5c-15.4,14.1-32.8,24.3-51.6,30.3c-18.6,5.9-42.4,8.9-70.9,8.9h-57.4L733,585.5c-0.6,3.2-3.5,5.5-6.8,5.5
	H652.4L652.4,591z"/>
</svg>
