<?xml version="1.0" encoding="utf-8"?>
<!-- Generator: Adobe Illustrator 25.2.0, SVG Export Plug-In . SVG Version: 6.00 Build 0)  -->
<svg version="1.1" id="Laag_1" xmlns="http://www.w3.org/2000/svg" xmlns:xlink="http://www.w3.org/1999/xlink" x="0px" y="0px"
	 viewBox="0 0 1024 787.9" style="enable-background:new 0 0 1024 787.9;" xml:space="preserve">
<style type="text/css">
	.st0{fill:#FF9900;}
	.st1{fill:#2B1F0F;}
	.st2{fill:#EB1D25;}
</style>
<g>
	<g>
		<g>
			<path class="st0" d="M982.2,42c-28-28-72-42-132.1-42H174.2C114.5-0.3,70.5,13.5,42.4,41.5S0.2,113.7,0.2,174v440.8
				c0,59.1,14.1,102.7,42.2,130.9c28.2,28.1,72.1,42.2,131.8,42.2h675.9c60,0,104.1-14.1,132.1-42.2c28-28.2,42-72.1,42-131.8V174.1
				C1024.2,114,1010.2,70,982.2,42z"/>
		</g>
	</g>
</g>
<g id="surface1">
	<path class="st1" d="M594.7,338.7c-20.8,0-36.2,10.2-36.2,34.7c0,18.5,10.2,31.3,35.1,31.3c21.1,0,35.4-12.4,35.4-32.1
		C629,350.4,616.2,338.7,594.7,338.7z M553.2,511.8c-4.9,6-9.8,12.4-9.8,20c0,15.1,19.2,19.6,45.6,19.6c21.9,0,51.7-1.5,51.7-21.9
		c0-12.1-14.3-12.8-32.4-14L553.2,511.8z M664.8,339.8c6.8,8.7,14,20.7,14,38.1c0,41.9-32.8,66.4-80.3,66.4c-12.1,0-23-1.5-29.8-3.4
		l-12.5,20l37,2.3c65.2,4.2,103.7,6.1,103.7,56.2c0,43.4-38.1,67.9-103.7,67.9c-68.2,0-94.3-17.3-94.3-47.1c0-17,7.5-26,20.7-38.5
		c-12.4-5.3-16.6-14.7-16.6-24.9c0-8.3,4.1-15.9,10.9-23s14.3-14.3,23.4-22.6c-18.5-9-32.4-28.7-32.4-56.6
		c0-43.4,28.7-73.1,86.3-73.1c16.2,0,26,1.5,34.7,3.8h73.5v32L664.8,339.8"/>
	<path class="st1" d="M765.9,271.3c-21.5,0-33.9-12.5-33.9-34s12.4-33.2,33.9-33.2c21.9,0,34.3,11.7,34.3,33.2
		S787.7,271.3,765.9,271.3z M717.2,497.9v-29.8l19.2-2.6c5.3-0.8,6-1.9,6-7.6V347.1c0-4.1-1.1-6.8-4.9-7.9l-20.3-7.2l4.1-30.5h78
		V458c0,6,0.4,6.8,6.1,7.6l19.2,2.6V498L717.2,497.9"/>
	<path class="st1" d="M973.8,483.3c-16.2,7.9-40,15.1-61.5,15.1c-44.9,0-61.8-18.1-61.8-60.7v-98.8c0-2.2,0-3.8-3-3.8h-26.4v-33.6
		c33.2-3.8,46.4-20.4,50.5-61.5h35.8v53.6c0,2.6,0,3.8,3,3.8h53.2v37.7h-56.2v90.1c0,22.2,5.3,30.9,25.6,30.9
		c10.6,0,21.5-2.6,30.5-6L973.8,483.3L973.8,483.3"/>
	<path class="st2" d="M415.1,384.3L242.7,211.9c-9.9-9.9-26-9.9-36,0l-35.8,35.8l45.4,45.4c10.6-3.6,22.7-1.2,31.1,7.2
		c8.5,8.5,10.8,20.7,7.2,31.3l43.8,43.8c10.6-3.7,22.8-1.3,31.3,7.2c11.8,11.8,11.8,31,0,42.8s-31,11.8-42.8,0
		c-8.9-8.9-11.1-22-6.6-32.9l-40.8-40.8v107.4c2.9,1.4,5.6,3.3,8,5.7c11.8,11.8,11.8,31,0,42.8c-11.8,11.8-31,11.8-42.8,0
		c-11.8-11.8-11.8-31,0-42.8c2.9-2.9,6.3-5.1,9.9-6.6V349.8c-3.6-1.5-7-3.7-9.9-6.6c-9-9-11.1-22.1-6.5-33.1l-44.8-44.8L35.1,383.5
		c-9.9,9.9-9.9,26,0,36l172.4,172.4c4.9,4.9,11.4,7.4,17.9,7.5h0.2c6.5,0,13-2.5,17.9-7.5l171.6-171.6
		C425,410.4,425,394.3,415.1,384.3"/>
</g>
</svg>
