<?xml version="1.0" encoding="utf-8"?>
<!-- Generator: Adobe Illustrator 25.2.0, SVG Export Plug-In . SVG Version: 6.00 Build 0)  -->
<svg version="1.2" baseProfile="tiny" id="Laag_1" xmlns="http://www.w3.org/2000/svg" xmlns:xlink="http://www.w3.org/1999/xlink"
	 x="0px" y="0px" viewBox="0 0 1024 787.9" overflow="visible" xml:space="preserve">
<g>
	<g>
		<path fill="#1D3E47" d="M982.2,42c-28-28-72-42-132.1-42H174.2C114.5-0.3,70.5,13.5,42.4,41.5S0.2,113.7,0.2,174v440.8
			c0,59.1,14.1,102.7,42.2,130.9c28.2,28.1,72.1,42.2,131.8,42.2h675.9c60,0,104.1-14.1,132.1-42.2c28-28.2,42-72.1,42-131.8V174.1
			C1024.2,114,1010.2,70,982.2,42z"/>
	</g>
</g>
<path id="path3486" fill="#FFFFFF" d="M223.9,435.1c27,0,47.1-5.1,59.9-15c12.6-9.9,21.3-26.9,25.9-50.8c4.3-22.3,2.6-37.8-4.8-46.2
	c-7.6-8.6-24.1-12.9-49-12.9h-43.1l-23.9,124.9H223.9z M82.9,589c-2,0-3.9-0.9-5.2-2.5c-1.3-1.6-1.8-3.6-1.4-5.6l63.3-331.1
	c0.6-3.2,3.4-5.5,6.6-5.5h136.5c42.9,0,74.8,11.8,94.9,35.2c20.2,23.5,26.4,56.3,18.5,97.5c-3.2,16.8-8.7,32.4-16.4,46.4
	c-7.7,14-17.9,26.9-30.2,38.5c-14.8,14.1-31.5,24.3-49.7,30.3C282,498,259,501,231.6,501h-55.3l-15.8,82.5c-0.6,3.2-3.4,5.5-6.6,5.5
	H82.9L82.9,589z"/>
<path id="path3494" fill="#FFFFFF" d="M564.6,501c-2,0-3.9-0.9-5.1-2.5c-1.3-1.6-1.8-3.6-1.4-5.6l27.7-146.5
	c2.6-13.9,2-23.9-1.8-28.2c-2.3-2.6-9.3-6.9-30-6.9h-50.1L469,495.5c-0.6,3.2-3.3,5.5-6.5,5.5H393c-2,0-3.9-0.9-5.1-2.5
	c-1.3-1.6-1.8-3.6-1.4-5.6L449,161.8c0.6-3.2,3.3-5.5,6.5-5.5H525c2,0,3.9,0.9,5.1,2.5c1.3,1.6,1.8,3.6,1.4,5.6l-15.1,79.9h53.9
	c41.1,0,68.9,7.5,85.1,22.8c16.5,15.6,21.7,40.6,15.3,74.3l-29.1,154.1c-0.6,3.2-3.3,5.5-6.5,5.5H564.6L564.6,501z"/>
<path id="path3502" fill="#FFFFFF" d="M798.8,435.1c28,0,48.9-5.1,62.2-15c13.1-9.9,22.1-26.9,26.9-50.8c4.4-22.3,2.7-37.8-5-46.2
	c-7.9-8.6-25-12.9-50.8-12.9h-44.8l-24.8,124.9H798.8z M652.4,589c-2.1,0-4.1-0.9-5.4-2.5c-1.3-1.6-1.9-3.6-1.5-5.6l65.8-331.1
	c0.6-3.2,3.5-5.5,6.8-5.5H860c44.6,0,77.7,11.8,98.6,35.2c21,23.5,27.4,56.3,19.2,97.5c-3.3,16.8-9.1,32.4-17,46.4
	c-8,14-18.5,26.9-31.4,38.5c-15.4,14.1-32.8,24.3-51.6,30.3c-18.6,5.9-42.4,8.9-70.9,8.9h-57.4L733,583.5c-0.6,3.2-3.5,5.5-6.8,5.5
	H652.4L652.4,589z"/>
<g>
	<path fill="#FF8000" d="M111.8,128.4c-4.6,0-8.6-0.9-12-2.6c-3.4-1.7-6-4.2-7.9-7.3c-1.9-3.1-2.8-6.8-2.8-10.9V78.2
		c0-4.2,0.9-7.8,2.8-10.9c1.9-3.1,4.5-5.6,7.9-7.3c3.4-1.7,7.4-2.6,12-2.6c4.7,0,8.7,0.9,12.1,2.6c3.4,1.7,6,4.2,7.9,7.3
		c1.9,3.1,2.8,6.8,2.8,10.9v29.4c0,4.2-0.9,7.8-2.8,10.9c-1.9,3.1-4.5,5.6-7.9,7.3C120.5,127.5,116.5,128.4,111.8,128.4z
		 M111.8,116.1c2.8,0,5-0.7,6.4-2.2c1.4-1.5,2.1-3.6,2.1-6.3V78.2c0-2.8-0.7-4.9-2.1-6.3c-1.4-1.5-3.5-2.2-6.4-2.2
		c-2.9,0-5.1,0.7-6.4,2.2c-1.4,1.5-2.1,3.6-2.1,6.3v29.4c0,2.7,0.7,4.8,2.1,6.3C106.8,115.3,109,116.1,111.8,116.1z"/>
	<path fill="#FF8000" d="M174,128.4c-4.3,0-7.7-1.2-10.1-3.7c-2.5-2.5-3.7-6-3.7-10.5l3.3,3.3h-3.3v9.9h-13.7V58.3h14.2v14.2
		l-0.5,12.8h3.3l-3.3,3.3c0-4.5,1.2-8,3.7-10.5c2.5-2.5,5.8-3.7,10.1-3.7c5.2,0,9.4,1.8,12.6,5.5c3.2,3.7,4.7,8.6,4.7,14.8V108
		c0,6.3-1.6,11.2-4.7,14.9C183.5,126.5,179.3,128.4,174,128.4z M168.9,116.1c2.7,0,4.7-0.7,6.1-2.2c1.4-1.5,2.1-3.6,2.1-6.3V95.2
		c0-2.7-0.7-4.8-2.1-6.3c-1.4-1.5-3.5-2.2-6.1-2.2c-2.6,0-4.6,0.7-6.1,2.2c-1.5,1.5-2.2,3.6-2.2,6.3v12.3c0,2.7,0.7,4.8,2.2,6.3
		C164.3,115.3,166.3,116.1,168.9,116.1z"/>
	<path fill="#FF8000" d="M204.6,144.5v-13.3h15.2c2.6,0,4.6-0.7,6-2.1c1.4-1.4,2.1-3.4,2.1-5.9V88.6h-20.4V75.3H242v48.3
		c0,6.4-1.9,11.5-5.7,15.2c-3.8,3.7-9,5.6-15.5,5.6H204.6z M234.4,67.1c-2.6,0-4.7-0.7-6.2-2c-1.5-1.3-2.3-3.1-2.3-5.4
		c0-2.3,0.8-4.1,2.3-5.4c1.5-1.3,3.6-2,6.2-2c2.6,0,4.7,0.7,6.2,2c1.5,1.3,2.3,3.1,2.3,5.4c0,2.3-0.8,4.1-2.3,5.4
		C239.1,66.4,237,67.1,234.4,67.1z"/>
	<path fill="#FF8000" d="M282.4,128.4c-4.6,0-8.6-0.9-12.1-2.6c-3.4-1.7-6.1-4.2-8-7.3c-1.9-3.1-2.8-6.8-2.8-10.9V95.2
		c0-4.2,0.9-7.8,2.8-10.9c1.9-3.1,4.5-5.6,8-7.3c3.4-1.7,7.5-2.6,12.1-2.6c4.6,0,8.6,0.9,12,2.6c3.4,1.7,6,4.2,7.9,7.3
		c1.9,3.1,2.8,6.8,2.8,10.9v9.5h-31.9v2.8c0,3.3,0.8,5.8,2.4,7.4c1.6,1.7,3.9,2.5,7.1,2.5c2.2,0,4-0.4,5.4-1.1
		c1.4-0.8,2.3-1.8,2.7-3.1h13.9c-1.1,4.5-3.7,8.2-7.7,11C292.8,127,288,128.4,282.4,128.4z M291.5,97.4V95c0-3.2-0.7-5.7-2.2-7.4
		c-1.5-1.7-3.8-2.6-6.9-2.6c-3.1,0-5.4,0.9-7,2.7c-1.5,1.8-2.3,4.3-2.3,7.5v1.4l19.3-0.2L291.5,97.4z"/>
	<path fill="#FF8000" d="M339.4,128.4c-4.6,0-8.7-0.9-12.1-2.6c-3.5-1.7-6.2-4.2-8.1-7.3c-1.9-3.1-2.8-6.8-2.8-10.9V95.2
		c0-4.2,0.9-7.9,2.8-11c1.9-3.1,4.6-5.5,8.1-7.2c3.5-1.7,7.5-2.6,12.1-2.6c6.9,0,12.4,1.7,16.5,5.2c4.1,3.5,6.3,8.2,6.5,14.2h-14.2
		c-0.2-2.2-1.1-3.9-2.6-5.2c-1.5-1.3-3.6-1.9-6.2-1.9c-2.8,0-5,0.7-6.5,2.2c-1.5,1.5-2.3,3.6-2.3,6.3v12.3c0,2.7,0.8,4.8,2.3,6.3
		c1.5,1.5,3.7,2.2,6.5,2.2c2.6,0,4.7-0.6,6.2-1.8c1.5-1.2,2.4-3,2.6-5.3h14.2c-0.3,6-2.4,10.7-6.5,14.2
		C351.8,126.6,346.3,128.4,339.4,128.4z"/>
	<path fill="#FF8000" d="M401.6,127.4c-5.3,0-9.5-1.5-12.5-4.5s-4.5-7.2-4.5-12.5V88.1h-13.7V75.3h13.7V60.7h14.2v14.7h19.4v12.8
		h-19.4v22.3c0,2.8,1.4,4.3,4.3,4.3h14.2v12.8H401.6z"/>
	<path fill="#FF8000" d="M509.6,128.4c-4.6,0-8.6-0.9-12-2.6c-3.4-1.7-6-4.2-7.9-7.3c-1.9-3.1-2.8-6.8-2.8-10.9V78.2
		c0-4.2,0.9-7.8,2.8-10.9c1.9-3.1,4.5-5.6,7.9-7.3c3.4-1.7,7.4-2.6,12-2.6c4.7,0,8.7,0.9,12.1,2.6c3.4,1.7,6,4.2,7.9,7.3
		c1.9,3.1,2.8,6.8,2.8,10.9v29.4c0,4.2-0.9,7.8-2.8,10.9c-1.9,3.1-4.5,5.6-7.9,7.3C518.3,127.5,514.3,128.4,509.6,128.4z
		 M509.6,116.1c2.8,0,5-0.7,6.4-2.2c1.4-1.5,2.1-3.6,2.1-6.3V78.2c0-2.8-0.7-4.9-2.1-6.3c-1.4-1.5-3.5-2.2-6.4-2.2
		c-2.9,0-5.1,0.7-6.4,2.2c-1.4,1.5-2.1,3.6-2.1,6.3v29.4c0,2.7,0.7,4.8,2.1,6.3C504.6,115.3,506.7,116.1,509.6,116.1z"/>
	<path fill="#FF8000" d="M545.8,127.4V75.3H559v9.9h3.6l-4.1,6.1c0-5.6,1.3-9.8,3.9-12.7c2.6-2.8,6.4-4.3,11.4-4.3
		c5.7,0,10.2,1.7,13.4,5.2c3.2,3.5,4.8,8.4,4.8,14.7v4.3h-15.2v-3.3c0-2.8-0.8-5.1-2.3-6.6c-1.5-1.6-3.6-2.4-6.2-2.4
		c-2.7,0-4.8,0.8-6.2,2.4c-1.4,1.6-2.1,3.8-2.1,6.6v32.2H545.8z"/>
	<path fill="#FF8000" d="M601.5,127.4v-12.9h18V88.1h-15.6V75.3h28.9v39.2h15.2v12.9H601.5z M625.1,67.1c-2.6,0-4.7-0.7-6.2-2
		c-1.5-1.3-2.3-3.1-2.3-5.4c0-2.3,0.8-4.1,2.3-5.4c1.5-1.3,3.6-2,6.2-2c2.6,0,4.7,0.7,6.2,2c1.5,1.3,2.3,3.1,2.3,5.4
		c0,2.3-0.8,4.1-2.3,5.4C629.8,66.4,627.7,67.1,625.1,67.1z"/>
	<path fill="#FF8000" d="M680.2,128.4c-4.6,0-8.6-0.9-12.1-2.6c-3.4-1.7-6.1-4.2-8-7.3c-1.9-3.1-2.8-6.8-2.8-10.9V95.2
		c0-4.2,0.9-7.8,2.8-10.9c1.9-3.1,4.5-5.6,8-7.3c3.4-1.7,7.5-2.6,12.1-2.6c4.6,0,8.6,0.9,12,2.6c3.4,1.7,6,4.2,7.9,7.3
		c1.9,3.1,2.8,6.8,2.8,10.9v9.5h-31.9v2.8c0,3.3,0.8,5.8,2.4,7.4c1.6,1.7,3.9,2.5,7.1,2.5c2.2,0,4-0.4,5.4-1.1
		c1.4-0.8,2.3-1.8,2.7-3.1h13.9c-1.1,4.5-3.7,8.2-7.7,11C690.6,127,685.8,128.4,680.2,128.4z M689.2,97.4V95c0-3.2-0.7-5.7-2.2-7.4
		c-1.5-1.7-3.8-2.6-6.9-2.6s-5.4,0.9-7,2.7c-1.5,1.8-2.3,4.3-2.3,7.5v1.4l19.3-0.2L689.2,97.4z"/>
	<path fill="#FF8000" d="M714.7,127.4V75.3h13.7v9.9h4.2l-4.2,3.3c0-4.4,1.3-7.9,3.8-10.4c2.5-2.5,5.9-3.8,10.2-3.8
		c5.1,0,9.1,1.8,12.2,5.3c3.1,3.5,4.6,8.2,4.6,14.1v33.6H745V95.2c0-2.7-0.7-4.8-2.1-6.3c-1.4-1.5-3.4-2.2-6-2.2
		c-2.5,0-4.5,0.7-5.9,2.2c-1.4,1.5-2.1,3.6-2.1,6.3v32.2H714.7z"/>
	<path fill="#FF8000" d="M799.4,127.4c-5.3,0-9.5-1.5-12.5-4.5c-3-3-4.5-7.2-4.5-12.5V88.1h-13.7V75.3h13.7V60.7h14.2v14.7H816v12.8
		h-19.4v22.3c0,2.8,1.4,4.3,4.3,4.3H815v12.8H799.4z"/>
	<path fill="#FF8000" d="M850.6,128.4c-4.6,0-8.6-0.9-12.1-2.6c-3.4-1.7-6.1-4.2-8-7.3c-1.9-3.1-2.8-6.8-2.8-10.9V95.2
		c0-4.2,0.9-7.8,2.8-10.9c1.9-3.1,4.5-5.6,8-7.3c3.4-1.7,7.5-2.6,12.1-2.6c4.6,0,8.6,0.9,12,2.6c3.4,1.7,6,4.2,7.9,7.3
		c1.9,3.1,2.8,6.8,2.8,10.9v9.5h-31.9v2.8c0,3.3,0.8,5.8,2.4,7.4c1.6,1.7,3.9,2.5,7.1,2.5c2.2,0,4-0.4,5.4-1.1
		c1.4-0.8,2.3-1.8,2.7-3.1h13.9c-1.1,4.5-3.7,8.2-7.7,11C861.1,127,856.3,128.4,850.6,128.4z M859.7,97.4V95c0-3.2-0.7-5.7-2.2-7.4
		c-1.5-1.7-3.8-2.6-6.9-2.6s-5.4,0.9-7,2.7c-1.5,1.8-2.3,4.3-2.3,7.5v1.4l19.3-0.2L859.7,97.4z"/>
	<path fill="#FF8000" d="M902,128.4c-5.2,0-9.4-1.8-12.6-5.5c-3.2-3.7-4.7-8.6-4.7-14.9V94.8c0-6.2,1.6-11.1,4.7-14.8
		s7.4-5.5,12.6-5.5c4.3,0,7.7,1.2,10.1,3.7c2.5,2.5,3.7,6,3.7,10.5l-3.3-3.3h3.3l-0.5-12.8V58.3h14.2v69.1h-13.7v-9.9h-3.3l3.3-3.3
		c0,4.5-1.2,8-3.7,10.5C909.6,127.1,906.3,128.4,902,128.4z M907.1,116.1c2.6,0,4.6-0.7,6.1-2.2c1.5-1.5,2.2-3.6,2.2-6.3V95.2
		c0-2.7-0.7-4.8-2.2-6.3c-1.5-1.5-3.5-2.2-6.1-2.2c-2.7,0-4.7,0.7-6.1,2.2c-1.4,1.5-2.1,3.6-2.1,6.3v12.3c0,2.7,0.7,4.8,2.1,6.3
		C902.4,115.3,904.4,116.1,907.1,116.1z"/>
</g>
</svg>
