<?xml version="1.0" encoding="utf-8"?>
<!-- Generator: Adobe Illustrator 25.2.0, SVG Export Plug-In . SVG Version: 6.00 Build 0)  -->
<svg version="1.2" baseProfile="tiny" id="Laag_1" xmlns="http://www.w3.org/2000/svg" xmlns:xlink="http://www.w3.org/1999/xlink"
	 x="0px" y="0px" viewBox="0 0 247 191" overflow="visible" xml:space="preserve">
<path fill="#00B9D4" d="M41.8,190.6c-14.4,0-25-3.4-31.8-10.2c-6.8-6.8-10.2-17.3-10.2-31.6V42.4c0-14.6,3.4-25.2,10.2-32
	c6.8-6.8,17.4-10.1,31.8-10h163.1c14.5,0,25.1,3.4,31.9,10.1c6.8,6.8,10.1,17.4,10.1,31.9v106.2c0,14.4-3.4,25-10.1,31.8
	c-6.8,6.8-17.4,10.2-31.9,10.2H41.8z"/>
<g>
	<path fill="#E44D26" d="M195.9,19.5l-13.2,147.4l-59.1,16.4l-59-16.4L51.5,19.5H195.9L195.9,19.5z"/>
	<path fill="#F16529" d="M123.7,170.8l47.8-13.2l11.2-125.9h-59V170.8L123.7,170.8z"/>
	<path fill="#EBEBEB" d="M98.2,67.7h25.6V49.6H78.4l0.4,4.9l4.4,49.8h40.5V86.2H99.8L98.2,67.7L98.2,67.7z"/>
	<path fill="#EBEBEB" d="M102.2,113.4H84.1l2.5,28.4l37,10.3l0.1,0v-18.8l-0.1,0l-20.1-5.4L102.2,113.4L102.2,113.4z"/>
	<path fill="#FFFFFF" d="M123.7,104.3h22.3l-2.1,23.4l-20.2,5.4V152l37.1-10.3l0.3-3.1l4.2-47.6l0.4-4.9h-42V104.3L123.7,104.3z"/>
	<path fill="#FFFFFF" d="M123.7,67.7L123.7,67.7l43.7,0l0.4-4.1l0.8-9.2l0.4-4.9h-45.3V67.7L123.7,67.7z"/>
</g>
</svg>
